<?xml version="1.0" encoding="UTF-8" standalone="no"?>
<svg
   viewBox="0 0 576 512"
   version="1.1"
   id="svg4"
   sodipodi:docname="navegador-yx.svg"
   width="576"
   height="512"
   inkscape:version="1.2.2 (b0a8486541, 2022-12-01)"
   xmlns:inkscape="http://www.inkscape.org/namespaces/inkscape"
   xmlns:sodipodi="http://sodipodi.sourceforge.net/DTD/sodipodi-0.dtd"
   xmlns="http://www.w3.org/2000/svg"
   xmlns:svg="http://www.w3.org/2000/svg">
  <defs
     id="defs8" />
  <sodipodi:namedview
     id="namedview6"
     pagecolor="#ffffff"
     bordercolor="#666666"
     borderopacity="1.0"
     inkscape:showpageshadow="2"
     inkscape:pageopacity="0.0"
     inkscape:pagecheckerboard="0"
     inkscape:deskcolor="#d1d1d1"
     showgrid="false"
     inkscape:zoom="0.62755727"
     inkscape:cx="426.25592"
     inkscape:cy="216.71329"
     inkscape:window-width="1444"
     inkscape:window-height="870"
     inkscape:window-x="50"
     inkscape:window-y="30"
     inkscape:window-maximized="1"
     inkscape:current-layer="svg4" />
  <path
     fill="currentColor"
     d="M 526.93333,102.4 493.25512,57.344 C 479.37423,43.463111 458.21156,40.049778 440.68978,48.810667 L 424.53333,56.888889 367.64445,0 H 208.35556 L 151.46667,56.888889 135.31023,48.810667 C 117.78845,40.049778 96.625781,43.463111 82.744892,57.344 L 49.06667,102.4 l 22.755556,34.13334 -22.755556,45.5111 65.64978,198.76978 c 8.98844,25.94133 27.07911,47.67289 50.85866,61.21245 L 288.00001,512 410.42489,442.02667 c 23.77955,-13.53956 41.87023,-35.27112 50.85867,-61.21245 l 65.64977,-198.76978 -22.75555,-45.5111 z M 288.00001,432.35555 219.73334,364.08889 c 0,0 56.88889,-34.13333 68.26667,-34.13333 11.37777,0 68.26666,34.13333 68.26666,34.13333 z M 443.648,190.69155 390.4,261.68889 396.88533,271.36 c 4.66489,6.94044 6.94045,15.01866 6.94045,22.98311 0,8.87467 -2.73066,17.63556 -8.30578,24.91733 -5.91644,7.96445 -14.67733,14.336 -23.21066,18.09068 -5.80267,2.61688 -11.49156,3.98221 -16.04267,3.98221 -10.24,0 -29.77564,-18.44337 -56.88889,-37.89937 v -12.53831 l 51.37067,-30.8224 c 4.1984,-2.5145 6.31466,-7.44108 5.25653,-12.21974 L 339.4048,173.14702 c 1.97973,-4.61937 5.05173,-8.46506 9.61422,-10.96818 l 64.13654,-25.6455 -34.13333,-11.37779 h -22.75556 l -0.15929,0.15929 c -1.13777,0.0228 -2.29831,0.0455 -3.44747,0.43236 l -34.13333,11.37777 c -5.5296,1.84321 -8.77227,7.57761 -7.50933,13.2665 l 20.98062,94.39004 -43.99786,26.39645 -44.00925,-26.40782 20.98062,-94.39005 c 1.26293,-5.68889 -1.97973,-11.41191 -7.50933,-13.26649 l -34.13333,-11.37778 c -1.14916,-0.38684 -2.29832,-0.40959 -3.44748,-0.43235 l -0.1479,-0.14792 h -22.75556 l -34.13334,11.37779 64.14792,25.63412 c 4.56248,2.50312 7.63449,6.3488 9.61422,10.96818 l -16.60018,74.70649 c -1.05813,4.77867 1.04676,9.70525 5.24515,12.21973 l 51.37068,30.8224 v 12.81138 c -27.84143,19.84284 -46.83093,37.63769 -56.88889,37.63769 -4.55111,0 -10.24,-1.36533 -16.04267,-3.98221 C 195.15734,333.59644 186.39644,327.22489 180.48,319.26044 169.89867,305.26578 169.32978,286.03733 179.11467,271.36 l 6.48534,-9.67111 -53.24801,-70.99734 c -8.98844,-11.94666 -9.10222,-28.21689 -0.45511,-40.39111 l 42.32533,-70.655996 31.06134,6.257778 c 4.32355,0.910222 8.76088,1.251556 13.19822,1.251556 12.288,0 24.576,-3.299556 35.27111,-9.671112 10.58133,-6.371555 22.41422,-9.557332 34.24712,-9.557332 11.83289,0 23.66577,3.185777 34.24711,9.557332 14.56355,8.647112 31.85777,11.719112 48.46933,8.419556 l 31.06133,-6.257778 42.32533,70.655996 c 8.64711,12.17422 8.53334,28.44445 -0.45511,40.39111 z"
     id="path2"
     style="stroke-width:11.3778" />
</svg>
