<?xml version="1.0" encoding="UTF-8" standalone="no"?>
<svg
   viewBox="0 0 576 512"
   version="1.1"
   id="svg244"
   sodipodi:docname="navegador-yxy.svg"
   width="576"
   height="512"
   inkscape:version="1.2.2 (b0a8486541, 2022-12-01)"
   xmlns:inkscape="http://www.inkscape.org/namespaces/inkscape"
   xmlns:sodipodi="http://sodipodi.sourceforge.net/DTD/sodipodi-0.dtd"
   xmlns="http://www.w3.org/2000/svg"
   xmlns:svg="http://www.w3.org/2000/svg">
  <defs
     id="defs248" />
  <sodipodi:namedview
     id="namedview246"
     pagecolor="#ffffff"
     bordercolor="#666666"
     borderopacity="1.0"
     inkscape:showpageshadow="2"
     inkscape:pageopacity="0.0"
     inkscape:pagecheckerboard="0"
     inkscape:deskcolor="#d1d1d1"
     showgrid="false"
     inkscape:zoom="1.3867188"
     inkscape:cx="255.63944"
     inkscape:cy="256"
     inkscape:window-width="1444"
     inkscape:window-height="870"
     inkscape:window-x="50"
     inkscape:window-y="30"
     inkscape:window-maximized="1"
     inkscape:current-layer="svg244" />
  <path
     fill="currentColor"
     d="m 188.61217,384.91185 -30.9,-31.8 c -8.5,-7.6 -11.5,-20 -8.6,-31.3 3,-8.9 7,-20.5 12.7,-33.8 H 56.012175 c -8.62,0 -16.586,-4.6 -20.854,-12.1 -4.269,-7.5 -4.188,-16.7 0.211,-24.1 l 52.473,-88.5 c 12.959995,-21.9 36.499995,-36.2 61.969995,-36.2 h 82.2 c 2.4,-3.1 4.8,-6.8 7.2,-10.4 81.9,-120.7700045 203.9,-124.8420045 276.7,-111.4250045 11.7,2.139 20.7,11.1549995 22.8,22.7849995 13.4,72.840005 9.4,194.840005 -111.4,276.740005 -3.5,2.4 -8.2,4.8 -11.3,6.3 v 83.1 c 0,25.5 -13.4,49 -35.3,62 l -88.5,52.4 c -7.4,4.4 -16.6,4.5 -24.1,0.3 -7.5,-4.3 -12.1,-12.3 -12.1,-20.9 v -107.2 c -14.1,4.8 -26.4,8.9 -35.7,11.9 -11.2,3.6 -23.4,0.5 -31.7,-7.8 z m 227.4,-217.8 c 22.1,0 40,-17 40,-40 0,-21.2 -17.9,-40.000005 -40,-40.000005 -22.1,0 -40,18.800005 -40,40.000005 0,23 17.9,40 40,40 z"
     id="path242" />
</svg>
