<?xml version="1.0" encoding="UTF-8" standalone="no"?>
<svg
   viewBox="0 0 576 512"
   version="1.1"
   id="svg3"
   sodipodi:docname="D_browserOptimize.svg"
   inkscape:version="1.2.2 (b0a8486541, 2022-12-01)"
   width="576"
   height="512"
   xmlns:inkscape="http://www.inkscape.org/namespaces/inkscape"
   xmlns:sodipodi="http://sodipodi.sourceforge.net/DTD/sodipodi-0.dtd"
   xmlns="http://www.w3.org/2000/svg"
   xmlns:svg="http://www.w3.org/2000/svg">
  <defs
     id="defs7" />
  <sodipodi:namedview
     id="namedview5"
     pagecolor="#ffffff"
     bordercolor="#666666"
     borderopacity="1.0"
     inkscape:showpageshadow="2"
     inkscape:pageopacity="0.0"
     inkscape:pagecheckerboard="0"
     inkscape:deskcolor="#d1d1d1"
     showgrid="false"
     inkscape:zoom="1.3867188"
     inkscape:cx="103.12112"
     inkscape:cy="255.99999"
     inkscape:window-width="1444"
     inkscape:window-height="870"
     inkscape:window-x="50"
     inkscape:window-y="30"
     inkscape:window-maximized="1"
     inkscape:current-layer="svg3" />
  <path
     fill="currentColor"
     id="iconBrowser_acceleration"
     d="M 544,256 C 544,397.4 429.4,512 288,512 146.6,512 32,397.4 32,256 32,114.6 146.6,0 288,0 429.4,0 544,114.6 544,256 Z m -207.3,54.4 76.6,-147.3 c 6.1,-11.8 1.5,-26.3 -10.2,-32.4 -11.8,-6.1 -26.3,-1.5 -32.4,10.2 l -76.6,147.4 c -2,-0.2 -4,-1.2 -7,-1.2 -34.4,0 -64,29.6 -64,64.9 0,35.3 29.6,64 64,64 36.2,0 64.9,-28.7 64.9,-64 0,-15.9 -5.8,-30.4 -15.3,-41.6 z" />
</svg>
