<?xml version="1.0" encoding="UTF-8" standalone="no"?>
<svg
   viewBox="0 0 576 512"
   version="1.1"
   id="svg18"
   sodipodi:docname="D_fsync.svg"
   inkscape:version="1.2.2 (b0a8486541, 2022-12-01)"
   width="576"
   height="512"
   xmlns:inkscape="http://www.inkscape.org/namespaces/inkscape"
   xmlns:sodipodi="http://sodipodi.sourceforge.net/DTD/sodipodi-0.dtd"
   xmlns="http://www.w3.org/2000/svg"
   xmlns:svg="http://www.w3.org/2000/svg">
  <defs
     id="defs22" />
  <sodipodi:namedview
     id="namedview20"
     pagecolor="#ffffff"
     bordercolor="#666666"
     borderopacity="1.0"
     inkscape:showpageshadow="2"
     inkscape:pageopacity="0.0"
     inkscape:pagecheckerboard="0"
     inkscape:deskcolor="#d1d1d1"
     showgrid="false"
     inkscape:zoom="0.7172083"
     inkscape:cx="-1.3942951"
     inkscape:cy="301.16774"
     inkscape:window-width="1444"
     inkscape:window-height="870"
     inkscape:window-x="50"
     inkscape:window-y="30"
     inkscape:window-maximized="1"
     inkscape:current-layer="svg18" />
  <path
     id="iconPerformance"
     fill="currentColor"
     d="M 288,0 A 256.05522,255.99922 0 0 0 31.94388,255.99999 256.05522,255.99922 0 0 0 288,512 256.05522,255.99922 0 0 0 544.05612,255.99999 256.05522,255.99922 0 0 0 288,0 Z m 0,19.161577 A 236.88813,236.83634 0 0 1 524.88832,255.99999 236.88813,236.83634 0 0 1 288,492.83842 236.88813,236.83634 0 0 1 51.114808,255.99999 236.88813,236.83634 0 0 1 288,19.161577 Z m 0.003,45.73711 c -1.62989,0 -3.24831,0.02415 -4.86053,0.06547 -30.82079,0.779511 -59.84452,8.969806 -85.33853,22.865439 -2.84646,1.553148 -5.65066,3.171578 -8.40854,4.860551 -52.94864,32.497933 -88.76131,90.306173 -90.42666,156.447703 -0.04708,1.61221 -0.06861,3.2362 -0.06861,4.85431 0,1.62993 0.02102,3.24835 0.06861,4.86056 0.779543,30.99204 9.05878,60.16744 23.09616,85.75006 1.54724,2.84646 3.1847,5.64998 4.88549,8.39605 7.49998,12.16533 16.33958,23.42229 26.31988,33.55613 l 42.90943,-42.90931 c -22.5885,-23.13182 -36.50862,-54.7697 -36.50862,-89.65348 0,-70.86593 57.45426,-128.31956 128.33202,-128.31956 28.16922,0 54.2308,9.0789 75.39609,24.48043 1.62854,1.2937 3.25452,2.6747 4.88238,4.0468 l 43.21486,-43.21486 c -7.80654,-6.74976 -16.13215,-12.915115 -24.96991,-18.335368 -2.75785,-1.694865 -5.5683,-3.313625 -8.41475,-4.866778 -25.47042,-13.860186 -54.4572,-22.039161 -85.25434,-22.818671 -1.61225,-0.04163 -3.23623,-0.06548 -4.85433,-0.06548 z m 144.41641,67.283743 -43.18057,43.18056 c 0.56248,0.68518 1.12442,1.28052 1.68669,1.98913 7.04524,9.43796 12.81374,19.87941 17.06646,31.06818 l 58.86277,-15.7726 c -3.50773,-10.19316 -7.84605,-20.00451 -12.96665,-29.33161 -1.55311,-2.84054 -3.17568,-5.64131 -4.88237,-8.39917 -4.94612,-8.0113 -10.53543,-15.57336 -16.58633,-22.73449 z m 41.79942,89.32611 -58.98123,15.80377 c 0.70881,5.46087 1.08809,11.02588 1.08809,16.67986 0,7.09651 -0.60723,14.04925 -1.71476,20.83269 l 58.88772,15.77882 c 2.07207,-10.51885 3.30339,-21.33726 3.54485,-32.39945 0.041,-1.3996 0.0561,-2.80654 0.0561,-4.21206 0,-1.83658 -0.0308,-3.67767 -0.0842,-5.49656 -0.26418,-9.18272 -1.26251,-18.17526 -2.7966,-26.98707 z m -186.78013,7.31108 c -16.8132,0.0785 -29.5038,15.17954 -26.67843,31.75097 2.19689,12.86704 13.48078,22.44086 26.53501,22.51313 4.48858,0.0265 8.7013,-1.0304 12.40546,-2.89948 l 79.181,56.47144 c 1.73154,1.23417 4.13032,0.91868 5.48409,-0.72018 1.35797,-1.63971 1.21163,-4.04916 -0.33048,-5.51839 l -70.42642,-67.06862 c 1.08726,-3.84368 1.35087,-8.01155 0.58612,-12.26204 -2.31145,-12.84815 -13.70438,-22.32378 -26.75635,-22.26683 z m 0.20889,17.35639 c 2.28003,0.0319 4.40391,0.85847 6.07022,2.24167 1.95564,1.60765 3.29413,3.97016 3.52927,6.69065 0.46462,5.37454 -3.53098,10.12048 -8.90111,10.58468 -2.65849,0.22987 -5.15638,-0.62834 -7.06479,-2.20422 -1.95608,-1.61212 -3.29098,-3.97637 -3.52615,-6.6969 -0.4642,-5.37012 3.53716,-10.11742 8.90735,-10.58156 0.33122,-0.0284 0.65948,-0.0385 0.98521,-0.0343 z m 118.79177,57.29144 c -6.29822,15.06431 -15.38209,28.67404 -26.61605,40.1782 l 42.89684,42.90308 c 10.24604,-10.39958 19.29486,-21.98153 26.92473,-34.50703 1.68307,-2.76376 3.29362,-5.57489 4.82312,-8.42723 4.21547,-7.79447 7.82558,-15.94944 10.92766,-24.34949 z"
     style="stroke-width:1.59628" />
</svg>
