<?xml version="1.0" encoding="UTF-8" standalone="no"?>
<svg
   viewBox="0 0 576 512"
   version="1.1"
   id="svg11"
   sodipodi:docname="D_performance.svg"
   inkscape:version="1.2.2 (b0a8486541, 2022-12-01)"
   width="576"
   height="512"
   xmlns:inkscape="http://www.inkscape.org/namespaces/inkscape"
   xmlns:sodipodi="http://sodipodi.sourceforge.net/DTD/sodipodi-0.dtd"
   xmlns="http://www.w3.org/2000/svg"
   xmlns:svg="http://www.w3.org/2000/svg">
  <defs
     id="defs15" />
  <sodipodi:namedview
     id="namedview13"
     pagecolor="#ffffff"
     bordercolor="#666666"
     borderopacity="1.0"
     inkscape:showpageshadow="2"
     inkscape:pageopacity="0.0"
     inkscape:pagecheckerboard="0"
     inkscape:deskcolor="#d1d1d1"
     showgrid="false"
     inkscape:zoom="0.7172083"
     inkscape:cx="192.41272"
     inkscape:cy="322.08216"
     inkscape:window-width="1444"
     inkscape:window-height="870"
     inkscape:window-x="50"
     inkscape:window-y="30"
     inkscape:window-maximized="1"
     inkscape:current-layer="svg11" />
  <path
     id="iconPerformance"
     fill="currentColor"
     d="M 288,0 C 146.58395,-5.0752463e-4 31.943463,114.61487 31.943885,256 31.943463,397.38514 146.58395,512.00051 288,512 429.41606,512.00045 544.05654,397.38512 544.05612,256 544.05654,114.61491 429.41606,-4.7038855e-4 288,0 Z m 0,19.161574 C 418.83061,19.161472 524.88945,125.19803 524.88831,256 524.88934,386.80198 418.83061,492.83851 288,492.83841 157.17061,492.83682 51.113666,386.80079 51.114812,256 51.113666,125.19923 157.17061,19.163172 288,19.161574 Z m 0.003,45.737111 c -1.62993,0 -3.2483,0.02414 -4.86055,0.06548 -30.82078,0.779511 -59.84455,8.969806 -85.33852,22.865438 -2.84645,1.553149 -5.65063,3.17157 -8.40852,4.860539 -52.94863,32.497958 -88.76133,90.306198 -90.426681,156.447728 -0.04828,1.6122 -0.0686,3.23619 -0.0686,4.85432 0,1.6299 0.01795,3.24832 0.0686,4.86053 0.779548,30.99205 9.058821,60.16745 23.096151,85.75007 1.54727,2.84645 3.18473,5.64999 4.88549,8.39605 7.50002,12.16534 16.33956,23.42229 26.31989,33.55614 l 42.90933,-42.90933 c -22.58845,-23.1318 -36.50864,-54.7697 -36.50864,-89.65346 0,-70.86595 57.45428,-128.31957 128.33205,-128.31957 28.1692,0 54.23079,9.0789 75.39609,24.48043 1.62853,1.29369 3.25455,2.67473 4.88235,4.0468 l 43.21488,-43.21486 c -7.80643,-6.74976 -16.132,-12.915115 -24.96983,-18.335374 -2.75782,-1.69487 -5.5683,-3.313621 -8.41475,-4.866775 C 352.6413,73.922655 323.65453,65.74368 292.85738,64.964169 c -1.61224,-0.04163 -3.23621,-0.06548 -4.85429,-0.06548 z m -0.58614,62.504275 c -2.12905,0.006 -3.88693,1.66265 -4.02811,3.78803 l -6.42564,97.03939 c -3.64863,1.6258 -7.02053,4.09263 -9.79591,7.40149 -8.38926,10.00195 -8.37044,24.82006 0.0311,34.80946 10.8254,12.86473 30.54865,12.94265 41.46895,0.16212 8.4771,-9.92603 8.60833,-24.7201 0.30552,-34.79388 -2.85356,-3.46495 -6.36261,-6.02723 -10.17003,-7.67585 l -7.32354,-96.98014 c -0.16049,-2.12024 -1.93363,-3.76007 -4.0593,-3.75062 z m 145.00254,4.77949 -43.18057,43.18057 c 0.56229,0.68517 1.12441,1.2805 1.68669,1.98911 7.04524,9.43795 12.81373,19.8794 17.06645,31.06818 l 58.86276,-15.77261 c -3.50774,-10.19316 -7.84598,-20.0045 -12.96663,-29.33161 -1.55307,-2.84054 -3.1757,-5.64131 -4.88238,-8.39917 -4.94611,-8.0113 -10.53546,-15.57336 -16.58632,-22.73447 z m 41.79629,89.32609 -58.9781,15.80378 c 0.70878,5.46087 1.08809,11.02588 1.08809,16.67987 0,7.0965 -0.60724,14.04923 -1.71475,20.83266 l 58.88768,15.77885 c 2.07211,-10.51887 3.30342,-21.33727 3.54488,-32.39947 0.0423,-1.39959 0.053,-2.80654 0.053,-4.21204 0,-1.83661 -0.0305,-3.67767 -0.0841,-5.49657 -0.26426,-9.18274 -1.26255,-18.17527 -2.79661,-26.98708 z m -186.17518,21.73683 c 2.50436,0.0111 5.00204,0.97617 6.89954,2.89014 1.87867,1.89487 2.81949,4.36531 2.8309,6.84029 0.0128,2.53475 -0.94783,5.07053 -2.88703,6.99307 -3.82798,3.79474 -10.03532,3.76242 -13.83024,-0.0654 -1.87241,-1.88864 -2.81661,-4.35914 -2.82155,-6.83408 -0.018,-2.53158 0.93854,-5.07058 2.87767,-6.99307 1.9155,-1.89902 4.42635,-2.8421 6.93071,-2.83089 z m 118.39895,60.22209 c -6.29821,15.06431 -15.38206,28.67403 -26.61608,40.17819 l 42.89687,42.9031 c 10.24601,-10.39958 19.29485,-21.98155 26.92471,-34.50705 1.68309,-2.76376 3.29367,-5.57489 4.82314,-8.42723 4.2155,-7.79447 7.82556,-15.94944 10.92764,-24.34947 z"
     style="stroke-width:1.59627" />
</svg>
