<?xml version="1.0" encoding="UTF-8" standalone="no"?>
<svg
   viewBox="0 0 576 512"
   version="1.1"
   id="svg228"
   sodipodi:docname="navegador-unchecked.svg"
   width="576"
   height="512"
   inkscape:version="1.2.2 (b0a8486541, 2022-12-01)"
   xmlns:inkscape="http://www.inkscape.org/namespaces/inkscape"
   xmlns:sodipodi="http://sodipodi.sourceforge.net/DTD/sodipodi-0.dtd"
   xmlns="http://www.w3.org/2000/svg"
   xmlns:svg="http://www.w3.org/2000/svg">
  <defs
     id="defs232" />
  <sodipodi:namedview
     id="namedview230"
     pagecolor="#ffffff"
     bordercolor="#666666"
     borderopacity="1.0"
     inkscape:showpageshadow="2"
     inkscape:pageopacity="0.0"
     inkscape:pagecheckerboard="0"
     inkscape:deskcolor="#d1d1d1"
     showgrid="false"
     inkscape:zoom="1.3867188"
     inkscape:cx="101.67887"
     inkscape:cy="256"
     inkscape:window-width="1444"
     inkscape:window-height="870"
     inkscape:window-x="50"
     inkscape:window-y="30"
     inkscape:window-maximized="1"
     inkscape:current-layer="svg228" />
  <path
     fill="currentColor"
     id="iconBrowser_acceleration"
     d="M 544,256 C 544,397.4 429.4,512 288,512 146.6,512 32,397.4 32,256 32,114.6 146.6,0 288,0 429.4,0 544,114.6 544,256 Z M 312,292.7 V 88 c 0,-13.25 -10.7,-24 -24,-24 -13.3,0 -24,10.75 -24,24 v 204.7 c -23.5,9.4 -40,32.4 -40,59.3 0,35.3 28.7,64 64,64 35.3,0 64,-28.7 64,-64 0,-26.9 -16.5,-49.9 -40,-59.3 z" />
</svg>
