<?xml version="1.0" encoding="UTF-8" standalone="no"?>
<svg
   viewBox="0 0 576 512"
   version="1.1"
   id="svg258"
   sodipodi:docname="performance-checked.svg"
   width="576"
   height="512"
   inkscape:version="1.2.2 (b0a8486541, 2022-12-01)"
   xmlns:inkscape="http://www.inkscape.org/namespaces/inkscape"
   xmlns:sodipodi="http://sodipodi.sourceforge.net/DTD/sodipodi-0.dtd"
   xmlns="http://www.w3.org/2000/svg"
   xmlns:svg="http://www.w3.org/2000/svg">
  <defs
     id="defs262" />
  <sodipodi:namedview
     id="namedview260"
     pagecolor="#ffffff"
     bordercolor="#666666"
     borderopacity="1.0"
     inkscape:showpageshadow="2"
     inkscape:pageopacity="0.0"
     inkscape:pagecheckerboard="0"
     inkscape:deskcolor="#d1d1d1"
     showgrid="false"
     inkscape:zoom="0.71720831"
     inkscape:cx="-128.27515"
     inkscape:cy="310.9278"
     inkscape:window-width="1444"
     inkscape:window-height="870"
     inkscape:window-x="50"
     inkscape:window-y="30"
     inkscape:window-maximized="1"
     inkscape:current-layer="svg258" />
  <path
     id="iconPerformance"
     fill="currentColor"
     d="M 288.00002,0 A 256.05522,255.99922 0 0 0 31.943885,256 256.05522,255.99922 0 0 0 288.00002,512 256.05522,255.99922 0 0 0 544.05611,256 256.05522,255.99922 0 0 0 288.00002,0 Z m 0,19.161575 A 236.88813,236.83633 0 0 1 524.88832,256 236.88813,236.83633 0 0 1 288.00002,492.83842 236.88813,236.83633 0 0 1 51.114812,256 236.88813,236.83633 0 0 1 288.00002,19.161575 Z m 0.003,45.73711 c -1.6299,0 -3.24832,0.02415 -4.86054,0.06548 -30.82078,0.779511 -59.84452,8.969806 -85.33853,22.865438 -2.84645,1.553152 -5.65065,3.171578 -8.40853,4.860543 -52.94867,32.497954 -88.76131,90.306194 -90.426659,156.447724 -0.04706,1.61221 -0.06859,3.2362 -0.06859,4.85432 0,1.62991 0.02106,3.24833 0.06859,4.86053 0.779535,30.99205 9.058779,60.16745 23.096149,85.75007 1.54725,2.84645 3.1847,5.64998 4.88549,8.39604 7.49998,12.16533 16.33958,23.4223 26.31987,33.55615 l 42.90934,-42.90933 c -22.58851,-23.13181 -36.50863,-54.76969 -36.50863,-89.65346 0,-70.86594 57.45427,-128.31957 128.33204,-128.31957 28.16922,0 54.2308,9.07889 75.39608,24.48042 1.62854,1.29371 3.25452,2.67471 4.88238,4.04681 l 43.21486,-43.21486 c -7.80654,-6.74976 -16.13214,-12.915114 -24.96991,-18.335375 -2.75784,-1.694871 -5.56829,-3.313622 -8.41474,-4.866778 -25.47043,-13.860186 -54.45719,-22.039161 -85.25435,-22.818672 -1.61224,-0.04163 -3.23621,-0.06548 -4.85432,-0.06548 z M 432.41942,132.18243 389.23885,175.363 c 0.56248,0.68517 1.12441,1.28052 1.68669,1.98912 7.04523,9.43797 12.81374,19.87941 17.06646,31.06819 l 58.86276,-15.7726 c -3.50773,-10.19316 -7.84605,-20.00451 -12.96665,-29.33161 -1.55312,-2.84055 -3.17569,-5.64132 -4.88236,-8.39917 -4.94613,-8.01131 -10.53544,-15.57337 -16.58633,-22.7345 z m 41.79942,89.32612 -58.98123,15.80377 c 0.70881,5.46087 1.08809,11.02588 1.08809,16.67987 0,7.09651 -0.60723,14.04924 -1.71476,20.83267 l 58.8877,15.77883 c 2.07209,-10.51885 3.30341,-21.33726 3.54486,-32.39945 0.041,-1.3996 0.0562,-2.80655 0.0562,-4.21205 0,-1.8366 -0.0308,-3.67769 -0.0841,-5.49657 -0.26418,-9.18273 -1.26251,-18.17527 -2.7966,-26.98707 z m -186.78013,7.31108 c -16.8132,0.0785 -29.5038,15.17953 -26.67844,31.75096 2.1969,12.86704 13.48079,22.44086 26.53502,22.51314 4.48857,0.0265 8.70129,-1.03039 12.40545,-2.89949 l 79.181,56.47145 c 1.73153,1.23416 4.13032,0.91867 5.4841,-0.72019 1.35797,-1.6397 1.21162,-4.04915 -0.33048,-5.51838 L 313.60914,263.3485 c 1.08725,-3.84368 1.35086,-8.01155 0.58612,-12.26205 -2.31146,-12.84814 -13.70438,-22.32378 -26.75635,-22.26682 z m 0.20889,17.3564 c 2.28002,0.0319 4.40391,0.85846 6.07021,2.24165 1.95565,1.60766 3.29413,3.97017 3.52928,6.69065 0.46461,5.37455 -3.53099,10.12049 -8.90112,10.58469 -2.65849,0.22986 -5.15638,-0.62835 -7.06479,-2.20422 -1.95607,-1.61212 -3.29097,-3.97638 -3.52615,-6.6969 -0.4642,-5.37012 3.53716,-10.11742 8.90736,-10.58157 0.33121,-0.0284 0.65947,-0.0385 0.98521,-0.0343 z m 118.79176,57.29142 c -6.29822,15.06432 -15.38209,28.67405 -26.61605,40.1782 l 42.89684,42.90309 c 10.24603,-10.39958 19.29486,-21.98154 26.92473,-34.50704 1.68307,-2.76376 3.29362,-5.57489 4.82312,-8.42723 4.21547,-7.79446 7.82558,-15.94943 10.92766,-24.34948 z"
     style="stroke-width:1.59628" />
</svg>
