<?xml version="1.0" encoding="UTF-8" standalone="no"?>
<svg
   viewBox="0 0 576 512"
   version="1.1"
   id="svg11"
   sodipodi:docname="U_developmentMode.svg"
   inkscape:version="1.2.2 (b0a8486541, 2022-12-01)"
   xmlns:inkscape="http://www.inkscape.org/namespaces/inkscape"
   xmlns:sodipodi="http://sodipodi.sourceforge.net/DTD/sodipodi-0.dtd"
   xmlns="http://www.w3.org/2000/svg"
   xmlns:svg="http://www.w3.org/2000/svg">
  <defs
     id="defs15" />
  <sodipodi:namedview
     id="namedview13"
     pagecolor="#ffffff"
     bordercolor="#666666"
     borderopacity="1.0"
     inkscape:showpageshadow="2"
     inkscape:pageopacity="0.0"
     inkscape:pagecheckerboard="0"
     inkscape:deskcolor="#d1d1d1"
     showgrid="false"
     inkscape:zoom="1.3867188"
     inkscape:cx="288.09013"
     inkscape:cy="255.99999"
     inkscape:window-width="1444"
     inkscape:window-height="870"
     inkscape:window-x="50"
     inkscape:window-y="30"
     inkscape:window-maximized="1"
     inkscape:current-layer="svg11" />
  <path
     fill="currentColor"
     d="m 43.393426,1.4514788 c -17.053207,0 -30.928987,13.8744662 -30.928987,30.9289872 V 438.06928 c 0,17.05453 13.87578,30.92898 30.928987,30.92898 H 380.88601 c -2.63376,-5.33313 -3.2577,-11.35378 -1.70789,-17.1462 0.89367,-3.33192 2.43974,-6.3711 4.5276,-8.97861 -2.85554,-1.73748 -5.34354,-4.06676 -7.32115,-6.88952 -0.91336,-1.30178 -1.68546,-2.67904 -2.32454,-4.10155 H 49.578477 V 112.05549 H 490.01569 v 208.83606 c 9.40258,0.84906 17.29091,7.02491 20.60314,15.48133 2.93296,-1.60756 6.20264,-2.60068 9.63822,-2.90381 2.32406,-0.2021 4.63205,-0.0592 6.87081,0.38306 V 32.380466 c 0,-17.054521 -13.87202,-30.9289872 -30.92525,-30.9289872 z M 361.26577,41.966359 h 11.42083 c 6.30818,0 11.42086,5.112675 11.42086,11.420854 v 12.943756 c 0,6.306869 -5.11268,11.418986 -11.42086,11.418986 h -11.42083 c -6.30558,0 -11.419,-5.112117 -11.419,-11.418986 V 53.387213 c 0,-6.306866 5.11342,-11.420854 11.419,-11.420854 z m 53.10359,0 h 11.42085 c 6.30819,0 11.419,5.112675 11.419,11.420854 v 12.943756 c 0,6.306869 -5.11212,11.418986 -11.419,11.418986 h -11.42085 c -6.30685,0 -11.41899,-5.112117 -11.41899,-11.418986 V 53.387213 c 0,-6.306866 5.11214,-11.420854 11.41899,-11.420854 z m 53.10175,0 h 11.41898 c 6.30817,0 11.42084,5.112675 11.42084,11.420854 v 12.943756 c 0,6.306869 -5.11398,11.418986 -11.42084,11.418986 h -11.41898 c -6.3082,0 -11.41899,-5.112117 -11.41899,-11.418986 V 53.387213 c 0,-6.306866 5.1121,-11.420854 11.41899,-11.420854 z M 296.86087,149.72637 c -7.02599,0 -13.18586,4.49521 -15.3262,11.17606 l -54.5387,168.98642 c -1.55243,4.87908 -0.67988,10.25204 2.33575,14.38444 3.01959,4.13109 7.87761,6.59987 12.99421,6.59987 h 0.41297 c 7.02337,0 13.17916,-4.4965 15.31686,-11.17605 l 54.5331,-168.97333 c 1.56686,-4.87516 0.69822,-10.2554 -2.32266,-14.39567 -3.01961,-4.1337 -7.87761,-6.60174 -12.99423,-6.60174 z m -84.37265,45.82356 c -2.33326,0 -4.6742,0.51369 -6.76992,1.48738 l -82.77691,38.49308 c -5.65465,2.62984 -9.30747,8.35605 -9.30747,14.58811 v 1.15107 c 0,6.22419 3.65019,11.94703 9.30747,14.58999 l 82.78624,38.49865 c 2.14035,0.99079 4.4194,1.49303 6.77366,1.49303 3.06813,0 6.05755,-0.871 8.6572,-2.52449 4.65601,-2.97627 7.43515,-8.04407 7.43515,-13.56225 l -0.002,-0.4223 c 0,-6.23602 -3.65393,-11.96466 -9.31121,-14.59187 l -51.77696,-24.05629 51.77877,-24.06003 c 5.65597,-2.62982 9.30934,-8.35663 9.30934,-14.59 v -0.41857 c 0,-5.52473 -2.77988,-10.59592 -7.43326,-13.56038 -2.57472,-1.6443 -5.57459,-2.51513 -8.67028,-2.51513 z m 114.62522,0.002 c -3.09439,0 -6.09502,0.86787 -8.66842,2.50954 -4.66124,2.96972 -7.44262,8.03938 -7.44262,13.56412 v 0.41856 c 0,6.22813 3.65189,11.95715 9.31309,14.59748 l 51.77504,24.05443 -51.77504,24.05442 c -5.65726,2.62721 -9.31309,8.35584 -9.31309,14.59186 v 0.42231 c 0,5.51818 2.78028,10.58336 7.43888,13.56225 2.59047,1.65087 5.58327,2.52448 8.65534,2.52448 2.35162,0 4.62823,-0.50204 6.783,-1.49675 l 82.78251,-38.49867 c 5.65204,-2.63639 9.30187,-8.36018 9.30187,-14.58438 v -1.15104 c -0.004,-6.23338 -3.6571,-11.96073 -9.31309,-14.59186 l -82.7769,-38.49307 c -2.08914,-0.97109 -4.42731,-1.48368 -6.76057,-1.48368 z m 140.2605,144.90771 c -2.66002,0 -4.81911,2.16151 -4.81911,4.82284 v 17.57413 c -5.19798,1.20075 -10.15286,3.02317 -14.79181,5.38529 l -11.29566,-13.46323 c -1.71122,-2.03928 -4.75171,-2.30412 -6.79233,-0.59422 l -15.13562,12.70085 c -0.97897,0.82281 -1.59318,1.99955 -1.70604,3.27378 -0.11026,1.27424 0.28845,2.54147 1.10994,3.52044 l 11.30688,13.47257 c -3.14423,4.17834 -5.80437,8.74636 -7.88172,13.62018 l -17.30508,-3.04955 c -2.61669,-0.46061 -5.12067,1.28848 -5.58523,3.90912 l -3.42887,19.4614 c -0.22178,1.25851 0.0651,2.55228 0.79603,3.6008 0.73619,1.04852 1.84954,1.7608 3.10935,1.98258 l 17.31999,3.05141 c 0.28216,5.36594 1.21681,10.55847 2.72067,15.50186 l -15.22343,8.78613 c -1.10757,0.63647 -1.91405,1.69081 -2.24606,2.92436 -0.3307,1.23488 -0.15565,2.54927 0.4821,3.65686 l 9.87927,17.11445 c 0.63646,1.10757 1.69267,1.91534 2.92621,2.24604 0.41076,0.11027 0.82962,0.16257 1.24823,0.16257 0.83853,0 1.66849,-0.21684 2.40863,-0.64466 l 15.23464,-8.79735 c 3.58257,3.83845 7.62704,7.24004 12.04683,10.11656 l -6.01501,16.52588 c -0.43568,1.20207 -0.38003,2.52798 0.16077,3.68673 0.54066,1.15875 1.51805,2.05515 2.71881,2.49083 l 18.56636,6.75686 c 0.53277,0.19422 1.09224,0.29337 1.64996,0.29337 0.69552,0 1.39429,-0.15037 2.03863,-0.45221 1.15876,-0.53936 2.05387,-1.51862 2.49084,-2.72067 l 6.01315,-16.52587 c 2.57865,0.31233 5.20415,0.47463 7.86679,0.47463 2.66264,0 5.28626,-0.16495 7.86491,-0.47463 l 6.01501,16.52587 c 0.43568,1.20205 1.33469,2.18131 2.49084,2.72067 0.64302,0.30051 1.33917,0.45221 2.03862,0.45221 0.55641,0 1.11532,-0.0966 1.64811,-0.29337 l 18.56823,-6.75686 c 1.19812,-0.43568 2.17759,-1.3347 2.71695,-2.49083 0.54066,-1.15875 0.59947,-2.48466 0.16258,-3.68673 l -6.0169,-16.52213 c 4.41587,-2.87654 8.46034,-6.28074 12.04685,-10.11657 l 15.23466,8.79547 c 0.73882,0.42519 1.57194,0.64654 2.41047,0.64654 0.41732,0 0.83824,-0.0569 1.24637,-0.1644 1.23486,-0.3307 2.28845,-1.14111 2.92623,-2.24605 l 9.87926,-17.11633 c 0.63777,-1.10494 0.81278,-2.42198 0.48208,-3.65684 -0.33201,-1.23092 -1.13847,-2.28527 -2.24603,-2.92436 l -15.21973,-8.78427 c 1.50389,-4.94469 2.4348,-10.13536 2.71693,-15.49998 l 17.32003,-3.0533 c 1.2598,-0.22178 2.37708,-0.93591 3.10934,-1.98443 0.75982,-1.04984 1.0477,-2.3423 0.82593,-3.6008 l -3.43075,-19.4614 c -0.46324,-2.62064 -2.96196,-4.37104 -5.58523,-3.90912 l -17.30506,3.04955 c -2.07735,-4.87514 -4.73224,-9.4424 -7.88174,-13.62206 l 11.305,-13.47443 c 0.82149,-0.97634 1.22204,-2.24247 1.11182,-3.5167 -0.11282,-1.27423 -0.72707,-2.45097 -1.70604,-3.27378 l -15.13748,-12.70271 c -0.97897,-0.82149 -2.24751,-1.21962 -3.52043,-1.10808 -1.27424,0.11155 -2.45041,0.72333 -3.27191,1.70229 l -11.29193,13.4651 c -4.63631,-2.36213 -9.59642,-4.18323 -14.79179,-5.38529 v -17.57413 c 0,-2.66134 -2.1578,-4.82285 -4.81911,-4.82285 z m 9.883,58.5412 c 14.6399,0 26.50975,11.868 26.50975,26.50789 0,14.63993 -11.86985,26.50977 -26.50975,26.50977 -14.63859,0 -26.50789,-11.86984 -26.50789,-26.50977 0,-14.63989 11.87062,-26.50789 26.50789,-26.50789 z"
     id="path9"
     style="stroke-width:0.95672" />
</svg>
