<?xml version="1.0" encoding="UTF-8" standalone="no"?>
<svg
   viewBox="0 0 576 512"
   version="1.1"
   id="svg26"
   sodipodi:docname="U_grub.svg"
   inkscape:version="1.2.2 (b0a8486541, 2022-12-01)"
   xmlns:inkscape="http://www.inkscape.org/namespaces/inkscape"
   xmlns:sodipodi="http://sodipodi.sourceforge.net/DTD/sodipodi-0.dtd"
   xmlns="http://www.w3.org/2000/svg"
   xmlns:svg="http://www.w3.org/2000/svg">
  <defs
     id="defs30" />
  <sodipodi:namedview
     id="namedview28"
     pagecolor="#ffffff"
     bordercolor="#666666"
     borderopacity="1.0"
     inkscape:showpageshadow="2"
     inkscape:pageopacity="0.0"
     inkscape:pagecheckerboard="0"
     inkscape:deskcolor="#d1d1d1"
     showgrid="false"
     inkscape:zoom="1.3867188"
     inkscape:cx="288.09013"
     inkscape:cy="255.99999"
     inkscape:window-width="1444"
     inkscape:window-height="870"
     inkscape:window-x="50"
     inkscape:window-y="30"
     inkscape:window-maximized="1"
     inkscape:current-layer="svg26" />
  <path
     fill="currentColor"
     d="M 9.372,86.63 C -3.124,74.13 -3.124,53.87 9.372,41.37 21.87,28.88 42.13,28.88 54.63,41.37 L 246.6,233.4 c 12.5,12.5 12.5,32.7 0,45.2 l -191.97,192 c -12.5,12.5 -32.76,12.5 -45.258,0 -12.496,-12.5 -12.496,-32.7 0,-45.2 L 178.7,256 Z M 544,416 c 17.7,0 32,14.3 32,32 0,17.7 -14.3,32 -32,32 H 256 c -17.7,0 -32,-14.3 -32,-32 0,-17.7 14.3,-32 32,-32 z"
     id="path24" />
</svg>
