<?xml version="1.0" encoding="UTF-8" standalone="no"?>
<svg
   viewBox="0 0 576 512"
   version="1.1"
   id="svg42"
   sodipodi:docname="U_invertedTouchpadScroll.svg"
   inkscape:version="1.2.2 (b0a8486541, 2022-12-01)"
   width="576"
   height="512"
   xmlns:inkscape="http://www.inkscape.org/namespaces/inkscape"
   xmlns:sodipodi="http://sodipodi.sourceforge.net/DTD/sodipodi-0.dtd"
   xmlns="http://www.w3.org/2000/svg"
   xmlns:svg="http://www.w3.org/2000/svg">
  <defs
     id="defs46" />
  <sodipodi:namedview
     id="namedview44"
     pagecolor="#ffffff"
     bordercolor="#666666"
     borderopacity="1.0"
     inkscape:showpageshadow="2"
     inkscape:pageopacity="0.0"
     inkscape:pagecheckerboard="0"
     inkscape:deskcolor="#d1d1d1"
     showgrid="false"
     inkscape:zoom="0.62755727"
     inkscape:cx="321.08623"
     inkscape:cy="305.94817"
     inkscape:window-width="1444"
     inkscape:window-height="870"
     inkscape:window-x="50"
     inkscape:window-y="30"
     inkscape:window-maximized="1"
     inkscape:current-layer="svg42" />
  <path
     fill="currentColor"
     d="M 35.15837,31.33286 C 15.680367,31.33286 -4.9999962e-8,47.925882 -4.9999962e-8,68.540896 V 355.05324 H 576 V 68.540896 C 576,47.925882 560.31965,31.33286 540.84164,31.33286 Z m 252.75899,33.290531 c 0.0263,0 0.0554,-3.22e-4 0.0828,0 1.9951,-0.02091 3.9921,0.733008 5.52087,2.264548 l 63.36332,63.473501 c 3.01639,3.02173 3.0164,7.88224 0,10.904 -3.01638,3.02176 -7.87658,3.02176 -10.89298,0 L 287.99458,83.169555 229.99787,141.26544 c -3.01641,3.02176 -7.8711,3.02176 -10.88747,0 -3.01639,-3.02165 -3.0164,-7.88238 0,-10.904 l 63.36374,-63.473501 c 1.50821,-1.510871 3.47549,-2.264549 5.44374,-2.264549 z m 63.52309,178.012319 c 1.96777,0 3.93554,0.75912 5.44374,2.27006 3.01638,3.02165 3.01639,7.88236 0,10.90401 l -63.3578,63.4735 c -1.5082,1.51089 -3.47546,2.26455 -5.44373,2.26455 h -0.006 c -0.0263,0 -0.0491,3.1e-4 -0.0763,0 -1.99509,0.0209 -3.9976,-0.73304 -5.52638,-2.26455 l -63.36372,-63.4735 c -3.01639,-3.02176 -3.0164,-7.88226 0,-10.90401 1.50818,-1.51091 3.48029,-2.26455 5.44925,-2.26455 1.9689,0 3.93553,0.75368 5.44373,2.26455 l 58.00222,58.09589 57.9912,-58.09589 c 1.50821,-1.51087 3.47596,-2.27006 5.44374,-2.27006 z M -4.9999962e-8,393.90349 v 49.55563 C -4.9999962e-8,464.07412 15.680367,480.66714 35.15837,480.66714 H 275.1896 V 393.90349 Z M 304.36978,393.90349 v 86.76365 H 540.84164 C 560.31965,480.66714 576,464.07412 576,443.45912 v -49.55563 z"
     id="path40"
     style="stroke-width:9.09022" />
</svg>
