<?xml version="1.0" encoding="UTF-8" standalone="no"?>
<svg
   viewBox="0 0 576 512"
   version="1.1"
   id="svg33"
   sodipodi:docname="U_ledKeyboard.svg"
   inkscape:version="1.2.2 (b0a8486541, 2022-12-01)"
   xmlns:inkscape="http://www.inkscape.org/namespaces/inkscape"
   xmlns:sodipodi="http://sodipodi.sourceforge.net/DTD/sodipodi-0.dtd"
   xmlns="http://www.w3.org/2000/svg"
   xmlns:svg="http://www.w3.org/2000/svg">
  <defs
     id="defs37" />
  <sodipodi:namedview
     id="namedview35"
     pagecolor="#ffffff"
     bordercolor="#666666"
     borderopacity="1.0"
     inkscape:showpageshadow="2"
     inkscape:pageopacity="0.0"
     inkscape:pagecheckerboard="0"
     inkscape:deskcolor="#d1d1d1"
     showgrid="false"
     inkscape:zoom="1.3867188"
     inkscape:cx="288.09013"
     inkscape:cy="255.99999"
     inkscape:window-width="1444"
     inkscape:window-height="870"
     inkscape:window-x="50"
     inkscape:window-y="30"
     inkscape:window-maximized="1"
     inkscape:current-layer="svg33" />
  <path
     fill="currentColor"
     id="iconled_keyboard"
     d="M 512,64 H 64 C 28.65,64 0,92.65 0,128 v 256 c 0,35.35 28.65,64 64,64 h 448 c 35.35,0 64,-28.65 64,-64 V 128 C 576,92.65 547.3,64 512,64 Z m 16,320 c 0,8.822 -7.178,16 -16,16 H 64 c -8.822,0 -16,-7.178 -16,-16 V 128 c 0,-8.822 7.178,-16 16,-16 h 448 c 8.822,0 16,7.178 16,16 z M 140,152 h -24 c -6.656,0 -12,5.344 -12,12 v 24 c 0,6.656 5.344,12 12,12 h 24 c 6.656,0 12,-5.344 12,-12 v -24 c 0,-6.7 -5.3,-12 -12,-12 z m 56,48 h 24 c 6.656,0 12,-5.344 12,-12 v -24 c 0,-6.656 -5.344,-12 -12,-12 h -24 c -6.656,0 -12,5.344 -12,12 v 24 c 0,6.7 5.3,12 12,12 z m 80,0 h 24 c 6.656,0 12,-5.344 12,-12 v -24 c 0,-6.656 -5.344,-12 -12,-12 h -24 c -6.656,0 -12,5.344 -12,12 v 24 c 0,6.7 5.3,12 12,12 z m 80,0 h 24 c 6.656,0 12,-5.344 12,-12 v -24 c 0,-6.656 -5.344,-12 -12,-12 h -24 c -6.656,0 -12,5.344 -12,12 v 24 c 0,6.7 5.3,12 12,12 z m 104,-48 h -24 c -6.656,0 -12,5.344 -12,12 v 24 c 0,6.656 5.344,12 12,12 h 24 c 6.656,0 12,-5.344 12,-12 v -24 c 0,-6.7 -5.3,-12 -12,-12 z m -320,80 h -24 c -6.656,0 -12,5.344 -12,12 v 24 c 0,6.656 5.344,12 12,12 h 24 c 6.656,0 12,-5.344 12,-12 v -24 c 0,-6.7 -5.3,-12 -12,-12 z m 56,48 h 24 c 6.656,0 12,-5.344 12,-12 v -24 c 0,-6.656 -5.344,-12 -12,-12 h -24 c -6.656,0 -12,5.344 -12,12 v 24 c 0,6.7 5.3,12 12,12 z m 80,0 h 24 c 6.656,0 12,-5.344 12,-12 v -24 c 0,-6.656 -5.344,-12 -12,-12 h -24 c -6.656,0 -12,5.344 -12,12 v 24 c 0,6.7 5.3,12 12,12 z m 80,0 h 24 c 6.656,0 12,-5.344 12,-12 v -24 c 0,-6.656 -5.344,-12 -12,-12 h -24 c -6.656,0 -12,5.344 -12,12 v 24 c 0,6.7 5.3,12 12,12 z m 104,-48 h -24 c -6.656,0 -12,5.344 -12,12 v 24 c 0,6.656 5.344,12 12,12 h 24 c 6.656,0 12,-5.344 12,-12 v -24 c 0,-6.7 -5.3,-12 -12,-12 z m -60,88 H 176 c -8.9,0 -16,7.1 -16,16 v 16 c 0,8.875 7.125,16 16,16 h 224 c 8.875,0 16,-7.125 16,-16 v -16 c 0,-8.9 -7.1,-16 -16,-16 z" />
</svg>
