<?xml version="1.0" encoding="UTF-8" standalone="no"?>
<svg
   viewBox="0 0 576 512"
   version="1.1"
   id="svg53"
   sodipodi:docname="U_lockWorkspace.svg"
   inkscape:version="1.2.2 (b0a8486541, 2022-12-01)"
   xmlns:inkscape="http://www.inkscape.org/namespaces/inkscape"
   xmlns:sodipodi="http://sodipodi.sourceforge.net/DTD/sodipodi-0.dtd"
   xmlns="http://www.w3.org/2000/svg"
   xmlns:svg="http://www.w3.org/2000/svg">
  <defs
     id="defs57" />
  <sodipodi:namedview
     id="namedview55"
     pagecolor="#ffffff"
     bordercolor="#666666"
     borderopacity="1.0"
     inkscape:showpageshadow="2"
     inkscape:pageopacity="0.0"
     inkscape:pagecheckerboard="0"
     inkscape:deskcolor="#d1d1d1"
     showgrid="false"
     inkscape:zoom="1.3867188"
     inkscape:cx="288.09014"
     inkscape:cy="256"
     inkscape:window-width="1444"
     inkscape:window-height="870"
     inkscape:window-x="50"
     inkscape:window-y="30"
     inkscape:window-maximized="1"
     inkscape:current-layer="svg53" />
  <path
     fill="currentColor"
     id="iconLock_the_workspace"
     d="M 144,192 V 144 C 144,64.47 208.5,0 288,0 367.5,0 432,64.47 432,144 v 48 h 16 c 35.3,0 64,28.7 64,64 v 192 c 0,35.3 -28.7,64 -64,64 H 128 C 92.65,512 64,483.3 64,448 V 256 c 0,-35.3 28.65,-64 64,-64 z m 64,0 h 160 v -48 c 0,-44.18 -35.8,-80 -80,-80 -44.2,0 -80,35.82 -80,80 z" />
</svg>
