<?xml version="1.0" encoding="UTF-8" standalone="no"?>
<!-- Created with Inkscape (http://www.inkscape.org/) -->

<svg
   width="576"
   height="512"
   viewBox="0 0 576 512"
   version="1.1"
   id="svg19685"
   xml:space="preserve"
   inkscape:version="1.2.2 (b0a8486541, 2022-12-01)"
   sodipodi:docname="U_mount.svg"
   xmlns:inkscape="http://www.inkscape.org/namespaces/inkscape"
   xmlns:sodipodi="http://sodipodi.sourceforge.net/DTD/sodipodi-0.dtd"
   xmlns="http://www.w3.org/2000/svg"
   xmlns:svg="http://www.w3.org/2000/svg"><sodipodi:namedview
     id="namedview19687"
     pagecolor="#ffffff"
     bordercolor="#000000"
     borderopacity="0.25"
     inkscape:showpageshadow="2"
     inkscape:pageopacity="0.0"
     inkscape:pagecheckerboard="0"
     inkscape:deskcolor="#d1d1d1"
     inkscape:document-units="mm"
     showgrid="false"
     inkscape:zoom="1"
     inkscape:cx="298.5"
     inkscape:cy="318"
     inkscape:window-width="1444"
     inkscape:window-height="870"
     inkscape:window-x="50"
     inkscape:window-y="30"
     inkscape:window-maximized="1"
     inkscape:current-layer="layer1" /><defs
     id="defs19682" /><g
     inkscape:label="Camada 1"
     inkscape:groupmode="layer"
     id="layer1"><g
       id="g256"
       transform="matrix(8.4936492,0,0,8.4936492,-287.30318,-319.30317)"><path
         id="path20559"
         style="fill:#000000;stroke:none;stroke-width:2.72818;stroke-linecap:round;stroke-linejoin:round;paint-order:stroke fill markers"
         d="m 67.572181,59.293256 c -1.390334,0 -2.78099,0.532418 -3.846335,1.597764 L 35.927951,88.689537 c -2.130691,2.130693 -2.130691,5.56136 0,7.69205 1.025616,1.025618 2.352737,1.555787 3.69079,1.594033 l -10e-7,0.0019 0.07715,-2e-6 c 0.05211,7.51e-4 0.104051,7.48e-4 0.156169,2e-6 l 55.762534,-2e-6 c 1.416347,0.0204 2.838744,-0.510526 3.924112,-1.595895 2.130715,-2.130691 2.130705,-5.56136 -6e-6,-7.692054 L 71.740809,60.89102 c -1.106663,-1.106662 -2.563737,-1.636951 -4.007481,-1.59403 -0.05371,-0.0015 -0.107433,-0.0038 -0.161147,-0.0038 z" /><rect
         style="fill:#000000;stroke:none;stroke-width:3.612;stroke-linecap:round;stroke-linejoin:round;paint-order:stroke fill markers"
         id="rect20557"
         width="66.450104"
         height="14.402241"
         x="34.508278"
         y="37.488583"
         rx="7.2011204"
         ry="7.2011204" /></g></g></svg>
