<?xml version="1.0" encoding="UTF-8" standalone="no"?>
<svg
   viewBox="0 0 576 512"
   version="1.1"
   id="svg66"
   sodipodi:docname="U_numLock.svg"
   inkscape:version="1.2.2 (b0a8486541, 2022-12-01)"
   xmlns:inkscape="http://www.inkscape.org/namespaces/inkscape"
   xmlns:sodipodi="http://sodipodi.sourceforge.net/DTD/sodipodi-0.dtd"
   xmlns="http://www.w3.org/2000/svg"
   xmlns:svg="http://www.w3.org/2000/svg">
  <defs
     id="defs70" />
  <sodipodi:namedview
     id="namedview68"
     pagecolor="#ffffff"
     bordercolor="#666666"
     borderopacity="1.0"
     inkscape:showpageshadow="2"
     inkscape:pageopacity="0.0"
     inkscape:pagecheckerboard="0"
     inkscape:deskcolor="#d1d1d1"
     showgrid="false"
     inkscape:zoom="1.3867188"
     inkscape:cx="288.09013"
     inkscape:cy="255.99999"
     inkscape:window-width="1444"
     inkscape:window-height="870"
     inkscape:window-x="50"
     inkscape:window-y="30"
     inkscape:window-maximized="1"
     inkscape:current-layer="svg66" />
  <path
     id="iconNumLock_text"
     fill="currentColor"
     d="M 150.74509,0 C 105.83077,0 69.670665,36.157707 69.670665,81.072045 V 430.92554 C 69.670665,475.83989 105.83077,512 150.74509,512 h 274.50983 c 44.91432,0 81.07442,-36.16011 81.07442,-81.07446 V 81.072045 C 506.32934,36.157707 470.16925,0 425.25492,0 Z m 7.12147,58.278545 h 49.10695 c 8.10263,0 14.73209,6.629454 14.73209,14.73209 v 49.106955 c 0,8.10266 -6.62946,14.7321 -14.73209,14.7321 h -49.10695 c -8.12719,0 -14.73208,-6.62944 -14.73208,-14.7321 V 73.010635 c 0,-8.102636 6.60489,-14.73209 14.73208,-14.73209 z m 105.57996,0 h 49.10697 c 8.10262,0 14.73208,6.629454 14.73208,14.73209 v 49.106955 c 0,8.10266 -6.62946,14.7321 -14.73208,14.7321 h -49.10696 c -8.12719,0 -14.73208,-6.62944 -14.73208,-14.7321 V 73.010635 c 0,-8.102636 6.60489,-14.73209 14.73207,-14.73209 z m 105.57996,0 h 49.10697 c 8.10262,0 14.73208,6.629454 14.73208,14.73209 v 49.106955 c 0,8.10266 -6.62946,14.7321 -14.73208,14.7321 h -49.10697 c -8.12718,0 -14.73209,-6.62944 -14.73209,-14.7321 V 73.010635 c 0,-8.102636 6.60491,-14.73209 14.73209,-14.73209 z M 157.86656,163.8585 h 49.10695 c 8.10263,0 14.73209,6.62948 14.73209,14.73209 v 49.10695 c 0,8.10265 -6.62946,14.73209 -14.73209,14.73209 h -49.10695 c -8.12719,0 -14.73208,-6.62944 -14.73208,-14.73209 v -49.10695 c 0,-8.10261 6.60489,-14.73209 14.73208,-14.73209 z m 105.57996,0 h 49.10697 c 8.10262,0 14.73208,6.62948 14.73208,14.73209 v 49.10695 c 0,8.10265 -6.62946,14.73209 -14.73208,14.73209 h -49.10696 c -8.12719,0 -14.73208,-6.62944 -14.73208,-14.73209 v -49.10695 c 0,-8.10261 6.60489,-14.73209 14.73207,-14.73209 z m 105.57996,0 h 49.10697 c 8.10262,0 14.73208,6.62948 14.73208,14.73209 v 49.10695 c 0,8.10265 -6.62946,14.73209 -14.73208,14.73209 h -49.10697 c -8.12718,0 -14.73209,-6.62944 -14.73209,-14.73209 v -49.10695 c 0,-8.10261 6.60491,-14.73209 14.73209,-14.73209 z M 157.86656,269.43846 h 49.10695 c 8.10263,0 14.73209,6.62946 14.73209,14.73208 v 49.10697 c 0,8.10265 -6.62946,14.73209 -14.73209,14.73209 h -49.10695 c -8.12719,0 -14.73208,-6.62944 -14.73208,-14.73209 v -49.10697 c 0,-8.10262 6.60489,-14.73208 14.73208,-14.73208 z m 105.57996,0 h 49.10697 c 8.10262,0 14.73208,6.62946 14.73208,14.73208 v 49.10697 c 0,8.10265 -6.62946,14.73209 -14.73208,14.73209 h -49.10696 c -8.12719,0 -14.73208,-6.62944 -14.73208,-14.73209 v -49.10697 c 0,-8.10262 6.60489,-14.73208 14.73207,-14.73208 z m 105.57996,0.30692 h 49.10697 c 8.10262,0 14.73208,6.62947 14.73208,14.73208 v 154.50949 c 0,8.10262 -6.62946,14.73209 -14.73208,14.73209 h -49.10697 c -8.12718,0 -14.73209,-6.62947 -14.73209,-14.73209 V 284.47746 c 0,-8.10261 6.60491,-14.73208 14.73209,-14.73208 z M 157.86656,375.01842 h 49.10695 c 8.10263,0 14.73209,6.62947 14.73209,14.73209 v 49.10696 c 0,8.10264 -6.62946,14.73208 -14.73209,14.73208 h -49.10695 c -8.12719,0 -14.73208,-6.62944 -14.73208,-14.73208 v -49.10696 c 0,-8.10262 6.60489,-14.73209 14.73208,-14.73209 z m 105.57996,0 h 49.10697 c 8.10262,0 14.73208,6.62947 14.73208,14.73209 v 49.10696 c 0,8.10264 -6.62946,14.73208 -14.73208,14.73208 h -49.10696 c -8.12719,0 -14.73208,-6.62944 -14.73208,-14.73208 v -49.10696 c 0,-8.10262 6.60489,-14.73209 14.73207,-14.73209 z"
     style="stroke-width:1.22767" />
</svg>
