<?xml version="1.0" encoding="UTF-8" standalone="no"?>
<svg
   viewBox="0 0 576 512"
   version="1.1"
   id="svg74"
   sodipodi:docname="U_searchFiles.svg"
   inkscape:version="1.2.2 (b0a8486541, 2022-12-01)"
   xmlns:inkscape="http://www.inkscape.org/namespaces/inkscape"
   xmlns:sodipodi="http://sodipodi.sourceforge.net/DTD/sodipodi-0.dtd"
   xmlns="http://www.w3.org/2000/svg"
   xmlns:svg="http://www.w3.org/2000/svg">
  <defs
     id="defs78" />
  <sodipodi:namedview
     id="namedview76"
     pagecolor="#ffffff"
     bordercolor="#666666"
     borderopacity="1.0"
     inkscape:showpageshadow="2"
     inkscape:pageopacity="0.0"
     inkscape:pagecheckerboard="0"
     inkscape:deskcolor="#d1d1d1"
     showgrid="false"
     inkscape:zoom="1.3867188"
     inkscape:cx="288.09014"
     inkscape:cy="256"
     inkscape:window-width="1444"
     inkscape:window-height="870"
     inkscape:window-x="50"
     inkscape:window-y="30"
     inkscape:window-maximized="1"
     inkscape:current-layer="svg74" />
  <path
     fill="currentColor"
     d="M 544,32 H 432 L 400,0 h -80 c -17.62,0 -32,14.38 -32,32 v 160 c 0,17.62 14.38,32 32,32 h 224 c 17.62,0 32,-14.38 32,-32 V 64 C 576,46.38 561.6,32 544,32 Z m 0,288 H 432 l -32,-32 h -80 c -17.62,0 -32,14.38 -32,32 v 160 c 0,17.62 14.38,32 32,32 h 224 c 17.62,0 32,-14.38 32,-32 V 352 c 0,-17.6 -14.4,-32 -32,-32 z M 64,16 C 64,7.125 56.88,0 48,0 H 16 C 7.125,0 0,7.125 0,16 v 400 c 0,17.62 14.38,32 32,32 H 256 V 384 H 64 V 160 H 256 V 96 H 64 Z"
     id="path72" />
</svg>
